<svg xmlns="http://www.w3.org/2000/svg" viewBox="0 0 368.5 59.5">
    <g>
    	<path fill="#343A40" d="M11.6,13.5V2H0v45.8h46.6V13.5H11.6z M11.6,36.4V24.9h23.3v11.5H11.6z M69.3,13.5v11.5 H57.7v22.9h46.6V13.5H69.3z M69.3,24.9h23.3v11.5H69.3V24.9z M127,2h-11.6v11.5H127V2z M127,24.9h-11.6v22.9H127V24.9z M138.1,13.5 v34.4h23.3l-5.2,11.5h11.6l5.1-11.5h11.7V13.5H138.1z M149.7,36.4V24.9H173v11.5H149.7z M195.9,13.5v34.4h46.5V13.5H195.9z M207.5,36.4V24.9h23.3v11.5H207.5z"/>
    	<path fill="#343A40" d="M270.8,41.8c2.1,1.5,6.2,2.8,10.4,2.8c10.1,0,14.4-5.8,14.4-12.4 c0-6.3-3.3-9.8-10.4-12.6c-5.9-2.3-8.5-4.3-8.5-8.3c0-2.9,2.2-6.5,8.1-6.5c3.9,0,6.7,1.3,7.9,2l1.4-4.5c-1.7-1.1-4.7-2.1-9.1-2.1 c-8.3,0-13.3,5-13.3,11.7c0,6,3.9,9.7,10.8,12.2c5.8,2.2,8.1,4.5,8.1,8.6c0,4.3-3.3,7.3-9,7.3c-3.8,0-7.2-1.3-9.4-2.8L270.8,41.8z M300.5,41.8c2.1,1.5,6.2,2.8,10.4,2.8c10,0,14.4-5.8,14.4-12.4c0-6.3-3.3-9.8-10.4-12.6c-5.9-2.3-8.5-4.3-8.5-8.3 c0-2.9,2.2-6.5,8.1-6.5c3.9,0,6.7,1.3,7.9,2l1.4-4.5c-1.7-1.1-4.7-2.1-9.1-2.1c-8.3,0-13.3,5-13.3,11.7c0,6,3.9,9.7,10.8,12.2 c5.8,2.2,8.1,4.5,8.1,8.6c0,4.3-3.3,7.3-9,7.3c-3.8,0-7.2-1.3-9.4-2.8L300.5,41.8z M350.1,0.2c-11.4,0-19,9-19,22.6 c0,12.9,7.1,21.8,18.4,21.8c10.9,0,19.1-7.9,19.1-22.6C368.5,9.2,361.7,0.2,350.1,0.2z M349.8,4.8c9.2,0,13.6,8.9,13.6,17.4 c0,9.7-4.9,17.8-13.7,17.8c-8.7,0-13.6-8.2-13.6-17.3C336.1,13.2,340.7,4.8,349.8,4.8z"/>
    </g>
</svg>
