<svg xmlns="http://www.w3.org/2000/svg" viewBox="0 0 1137.458 743.754">
<g>
	<path fill="#74D4FE" d="M763.351,131.956c0,21.539-17.461,39-39,39h-92.002c-21.537,0-38.998-17.461-38.998-39l0,0 c0-21.538,17.461-38.999,38.998-38.999h92.002C745.89,92.957,763.351,110.418,763.351,131.956L763.351,131.956z"/>
	<path fill="#74D4FE" d="M763.351,608.569c0,21.539-17.461,39-39,39h-92.002c-21.537,0-38.998-17.461-38.998-39l0,0 c0-21.537,17.461-38.998,38.998-38.998h92.002C745.89,569.571,763.351,587.032,763.351,608.569L763.351,608.569z"/>
	<path fill="#74D4FE" d="M479.793,369.759c0,21.539-17.461,39-39,39h-92.001c-21.539,0-39-17.461-39-39l0,0 c0-21.539,17.461-39,39-39h92.001C462.333,330.759,479.793,348.22,479.793,369.759L479.793,369.759z"/>
	<circle fill="#3C763D" cx="94.168" cy="369.758" r="80"/>
	<text transform="matrix(1 0 0 1 414.3589 260.667)" fill="#2693FF" font-size="27.2958">流程 1</text>
	<text transform="matrix(1 0 0 1 190.7935 653.3096)" fill="#2693FF" font-size="27.2958">流程 2</text>
	<text transform="matrix(1 0 0 1 126.603 158.8818)" fill="#DC73FF" font-size="27.2958">流程 3</text>
	<text transform="matrix(1 0 0 1 541.7397 406.2451)" fill="#008C00" font-size="27.2958">流程 4-5</text>
	<text transform="matrix(1 0 0 1 818.6553 174.9697)" fill="#D93600" font-size="27.2958">流程 6</text>
	<text transform="matrix(1 0 0 1 818.6553 583.7559)" fill="#D93600" font-size="27.2958">流程 6</text>
	<text transform="matrix(1 0 0 1 340.2017 192.4287)" font-size="27.2958">用户登录</text>
	<text transform="matrix(1 0 0 1 121.7495 100.3945)"><tspan x="0" y="0" font-size="27.2958">SSO 返回结果</tspan></text>
	<text transform="matrix(1 0 0 1 153.1001 581.8203)" font-size="27.2958">调用同步接口</text>
	<text transform="matrix(1 0 0 1 333.6821 384.0312)"><tspan x="0" y="0" font-size="43">A 网站</tspan></text>
	<text transform="matrix(1 0 0 1 618.876 146.2236)"><tspan x="0" y="0" font-size="43">B 网站</tspan></text>
	<text transform="matrix(1 0 0 1 617.9873 622.8486)"><tspan x="0" y="0" font-size="43">C 网站</tspan></text>
	<text transform="matrix(1 0 0 1 698.583 378.084)"><tspan x="0" y="0" font-size="27.2958">浏览器访问同步通知 URL</tspan></text>
	<text transform="matrix(1 0 0 1 916.9053 37.6436)"><tspan x="0" y="0" font-size="27.2958">用户在 B 网站登录</tspan></text>
	<text transform="matrix(1 0 0 1 916.3877 722.7607)"><tspan x="0" y="0" font-size="27.2958">用户在 C 网站登录</tspan></text>
	<text transform="matrix(1 0 0 1 28.854 392.6484)" fill="#FFFFFF" font-size="73">SSO</text>
	<polygon fill="#2692FE" points="397.293,287.148 397.293,204.736 392.293,204.736 392.293,287.148 376.278,280.344 394.793,324.236 413.309,280.344"/>
	<polygon fill="#2692FE" points="392.293,413.163 392.293,605.815 96.668,605.815 96.668,493.904 112.684,500.708 94.168,456.817 75.653,500.708 91.668,493.904 91.668,610.815 91.669,610.815 397.293,610.815 397.293,413.163"/>
	<polygon fill="#DB73FE" points="302.719,369.758 258.828,351.243 265.632,367.258 230.718,367.258 230.718,121.106 91.668,121.106 91.668,285.258 96.668,285.258 96.668,126.106 225.718,126.106 225.718,372.259 265.632,372.259 258.828,388.274"/>
	<polygon fill="#169516" points="680.851,213.495 696.866,220.299 678.351,176.408 659.835,220.299 675.851,213.495 675.851,367.259 485.577,367.259 485.577,372.259 675.851,372.259 675.851,526.022 659.835,519.218 678.351,563.11 696.866,519.218 680.851,526.022"/>
	<polygon fill="#D83601" points="941.263,131.956 897.37,113.44 904.175,129.456 765.761,129.456 765.761,134.456 904.175,134.456 897.37,150.473"/>
	<polygon fill="#D83601" points="941.263,608.569 897.37,590.054 904.175,606.069 765.761,606.069 765.761,611.069 904.175,611.069 897.37,627.087"/>
	<polygon fill="#FED14D" points="1017.842,63.171 1039.687,107.434 1088.534,114.532 1053.188,148.986 1061.532,197.636 1017.842,174.667 974.151,197.636 982.496,148.986 947.149,114.532 995.997,107.434"/>
	<polygon fill="#FED14D" points="1017.176,539.374 1039.021,583.638 1087.868,590.735 1052.521,625.189 1060.866,673.839 1017.176,650.87 973.485,673.839 981.83,625.189 946.483,590.735 995.331,583.638"/>
</g>
</svg>
