<svg xmlns="http://www.w3.org/2000/svg" viewBox="0 0 99.213 28.346">
    <path fill="#ffffff" d="M11.161,8.28V4.352H7.087v15.707h16.338V8.28H11.161z M11.161,16.129V12.2h8.173v3.929H11.161z M31.419,8.28v3.92h-4.091v7.858h16.338V8.28H31.419z M31.419,12.2h8.164v3.929h-8.164 V12.2z M51.635,4.352h-4.074V8.28h4.074V4.352z M51.635,12.2h-4.074v7.858h4.074V12.2z M55.555,8.28v11.778h8.165l-1.811,3.937 h4.083l1.811-3.937h4.091V8.28H55.555z M59.629,16.129V12.2h8.173v3.929H59.629z M75.805,8.28v11.778h16.321V8.28H75.805z M79.879,16.129V12.2h8.173v3.929H79.879z"/>
</svg>
