<svg xmlns="http://www.w3.org/2000/svg" viewBox="0 0 467.717 226.772">
<g>
	<g>
		<path d="M234.042,143.967c-3.043-3.821-7.023-5.715-11.938-5.677c-4.916,0-8.603,1.404-11.059,4.215 c-2.458,2.809-3.688,7.041-3.688,12.697v21.475c0,7.02,1.17,12.162,3.511,15.418c2.341,3.258,6.066,4.888,11.176,4.888 c5.228,0,9.05-1.718,11.47-5.152l0.527-0.757v11c0,3.511-0.635,5.959-1.902,7.344c-1.269,1.383-3.521,2.078-6.758,2.078 c-2.887,0-4.888-0.645-5.999-1.932c-1.112-1.288-1.59-3.514-1.433-6.672v-1.697h-9.07v1.697 c-0.196,5.693,1.111,9.917,3.921,12.668c2.809,2.752,7.216,4.125,13.225,4.125c6.239,0,10.921-1.57,14.042-4.709 c3.121-3.141,4.682-7.869,4.682-14.189V139.52h-10.708V143.967z M234.042,174.103c0,5.578-0.577,9.422-1.727,11.525 c-1.151,2.107-3.269,3.161-6.348,3.161c-3.043,0-5.13-0.839-6.26-2.515c-1.134-1.678-1.699-4.74-1.699-9.188v-19.721 c0-3.548,0.682-6.251,2.048-8.105c1.365-1.85,3.355-2.777,5.969-2.777c3.043,0,5.139,1.053,6.29,3.16 c1.15,2.104,1.727,5.949,1.727,11.529V174.103z"/>
		<polygon points="256.452,139.52 256.452,196.983 261.835,196.983 267.159,196.983 267.159,139.52 261.776,139.52"/>
		<rect x="256.159" y="114.534" width="11.293" height="10.708"/>
		<path d="M302.21,138.291c-4.877,0-9.107,1.914-12.697,5.735l-0.234,0.233v-4.739h-5.382h-5.325v57.463h5.385h5.322v-38.14 c0-4.254,0.711-7.398,2.137-9.431c1.423-2.029,3.637-3.046,6.641-3.046c2.457,0,4.318,0.802,5.59,2.401 c1.266,1.602,1.9,3.927,1.9,6.97v41.245h5.266h5.211v-44.868c0-4.412-1.203-7.818-3.601-10.22 C310.022,139.492,306.616,138.291,302.21,138.291z"/>
		<polygon points="365.522,139.52 359.844,139.52 354.22,139.52 339.073,165.384 339.073,114.417 333.692,114.417 328.367,114.417 328.367,196.983 333.751,196.983 339.073,196.983 339.073,165.446 355.581,196.983 361.135,196.983 366.694,196.983 350.483,165.384"/>
		<path d="M402.036,143.967c-3.043-3.821-7.023-5.715-11.936-5.677c-4.917,0-8.602,1.404-11.059,4.215 c-2.46,2.809-3.688,7.041-3.688,12.697v21.475c0,7.02,1.171,12.162,3.51,15.418c2.342,3.258,6.068,4.888,11.178,4.888 c5.225,0,9.049-1.718,11.468-5.152l0.526-0.757v11c0,3.511-0.633,5.959-1.901,7.344c-1.266,1.383-3.521,2.078-6.761,2.078 c-2.885,0-4.883-0.645-5.994-1.932c-1.113-1.288-1.592-3.514-1.436-6.672v-1.697h-9.069v1.697 c-0.196,5.693,1.112,9.917,3.921,12.668c2.808,2.752,7.215,4.125,13.225,4.125c6.24,0,10.92-1.57,14.044-4.709 c3.12-3.141,4.681-7.869,4.681-14.189V139.52h-10.709V143.967z M402.036,174.103c0,5.578-0.576,9.422-1.728,11.525 c-1.149,2.107-3.267,3.161-6.349,3.161c-3.039,0-5.127-0.839-6.26-2.515c-1.129-1.678-1.699-4.74-1.699-9.188v-19.721 c0-3.548,0.688-6.251,2.051-8.105c1.366-1.85,3.354-2.777,5.969-2.777c3.043,0,5.139,1.053,6.288,3.16 c1.151,2.104,1.728,5.949,1.728,11.529V174.103z"/>
		<path d="M457.129,143.324c-2.985-3.355-7.698-5.033-14.13-5.033c-5.971,0-10.561,1.825-13.783,5.475 c-3.219,3.646-4.825,8.826-4.825,15.533v16.735c0,7.687,1.492,13.304,4.474,16.851c2.988,3.552,7.695,5.326,14.135,5.326 c6.59,0,11.341-1.732,14.245-5.207c2.906-3.473,4.36-9.129,4.36-16.97v-16.735C461.604,152.003,460.112,146.678,457.129,143.324z  M450.897,177.087c0,4.604-0.617,7.93-1.841,9.977c-1.234,2.048-3.251,3.072-6.058,3.072c-3.006,0-5.073-0.966-6.205-2.895 c-1.13-1.934-1.695-5.453-1.695-10.564v-16.735c0-4.796,0.611-8.259,1.844-10.386c1.229-2.127,3.245-3.189,6.057-3.189 c2.729,0,4.727,1.123,5.997,3.363c1.269,2.244,1.901,5.785,1.901,10.622V177.087z"/>
	</g>
	<path fill="#BAD135" d="M265.319,38.563c0.145-1.408-0.029-2.183-0.426-2.657c-0.066-0.089-0.139-0.166-0.217-0.234 c-0.012-0.009-0.021-0.021-0.033-0.03c-0.918-0.77-2.689-0.45-4.734-1.446c-0.031-0.016-0.061-0.032-0.092-0.049 c-0.253-0.127-0.512-0.284-0.773-0.458c-0.122-0.08-0.246-0.173-0.371-0.267c-0.098-0.093-0.204-0.189-0.393-0.281 c-0.549-0.471-1.078-0.938-1.6-1.399c-0.119-0.111-0.252-0.223-0.363-0.333c-1.846-1.618-3.461-3.118-4.961-4.388 c-0.428-0.373-0.848-0.731-1.261-1.083c-0.437-0.384-0.862-0.756-1.278-1.107c-1.846-1.616-3.578-3.001-5.079-4.156 c-0.347-0.254-0.663-0.479-0.989-0.713c-0.609-0.451-1.203-0.879-1.779-1.248c-0.153-0.099-0.3-0.176-0.451-0.271 c-0.862-0.549-1.695-1.033-2.55-1.461c-2.167-0.984-4.36-1.443-6.958-1.563c-0.058-0.003-0.12-0.004-0.179-0.007 c-0.389-0.015-0.761-0.044-1.173-0.044c-3,0-6.693,0.347-11.539,0.808c-2.54,0.345-5.426,0.577-8.887,0.921 c-1.139,0.115-2.277,0.114-3.432,0.018c-2.395-0.287-4.801-0.914-7.301-1.747c-1.798-0.629-3.67-1.333-5.552-2.048 c-0.944-0.372-1.902-0.728-2.866-1.083c-1.24-0.474-2.5-0.933-3.771-1.371c-0.664-0.238-1.33-0.469-2.004-0.69 c0,0-0.002-0.001-0.003-0.001l0,0c-1.267-0.415-2.564-0.801-3.923-1.155c-2.77-0.691-5.655-1.153-8.656-1.268 c-2.423-0.116-4.846,0-7.271,0.461c-0.261,0.052-0.503,0.187-0.732,0.37c-0.001,0-0.003,0.001-0.004,0.003 c-0.092,0.073-0.178,0.158-0.266,0.248c-0.036,0.036-0.07,0.07-0.105,0.108c-0.05,0.058-0.1,0.117-0.148,0.179 c-0.475,0.583-0.896,1.374-1.282,2.206c-0.703,1.507-1.319,3.097-2.073,3.486c-0.006,0.001-0.011,0.007-0.017,0.01 c-0.107,0.053-0.218,0.083-0.333,0.083c-1.04,0.116-1.501-2.193-1.962-4.154c-0.309-1.335-0.616-2.481-1.005-2.719 c-0.049-0.033-0.099-0.05-0.15-0.05c-0.115-0.116-0.346-0.116-0.462-0.116c-2.423-0.23-5.77-0.461-9.577-0.692 c-3.196-0.114-6.618-0.116-10.265-0.003c-1.895,0.055-3.809,0.168-5.661,0.348l-0.018,0.013c-9.757,0.88-18.863,3.207-21.678,8.644 c-1.302,2.517-1.559,5.688-1.114,9.316l-0.039,0.03c0.076,0.486,0.168,0.988,0.267,1.494c0.121,0.719,0.258,1.451,0.425,2.2 c0.461,2.077,1.153,4.27,1.96,6.578c0.534,1.599,1.203,3.197,1.904,4.846c0.584,1.477,1.229,2.981,1.905,4.502 c0.924,2.077,1.848,4.038,2.769,6.001c1.04,2.078,1.963,4.039,3.001,6c1.038,1.961,1.961,3.922,3.001,5.885 c0.619,1.172,1.204,2.336,1.792,3.483c0.917,1.852,1.76,3.624,2.591,5.289c0.874,1.744,1.665,3.48,2.441,5.088 c0.505,1.164,0.966,2.276,1.416,3.329c0.563,1.409,1.081,2.746,1.452,3.931c0.627,2.102,0.967,3.919,0.895,5.352 c-0.004,0.071-0.014,0.139-0.019,0.207c-0.017,0.194-0.049,0.37-0.081,0.547c-0.168,0.823-0.515,1.491-1.081,1.964 c-0.162,0.129-0.322,0.259-0.522,0.354c-0.199,0.098-0.412,0.143-0.631,0.167c-0.117,0.013-0.237,0.003-0.357-0.006 c-0.114-0.007-0.23-0.021-0.349-0.046c-0.126-0.028-0.256-0.064-0.388-0.114c-0.138-0.051-0.283-0.124-0.428-0.201 c-0.11-0.057-0.219-0.104-0.333-0.175c-0.279-0.181-0.567-0.396-0.861-0.663c-0.204-0.167-0.417-0.382-0.627-0.583 c-0.5-0.512-1.021-1.125-1.566-1.84c-1.152-1.384-2.422-3.232-3.691-5.31c-0.861-1.433-1.805-2.964-2.757-4.555 c-0.421-0.745-0.86-1.497-1.3-2.276c-0.724-1.319-1.448-2.668-2.173-4.037c-0.135-0.253-0.271-0.504-0.409-0.761 c-0.695-1.244-1.391-2.536-2.086-3.842c-0.754-1.496-1.546-2.965-2.355-4.492c-0.753-1.424-1.522-2.831-2.32-4.21 c-0.803-1.513-1.608-3.017-2.412-4.445c-0.266-0.453-0.514-0.883-0.771-1.325c-0.282-0.518-0.562-1.03-0.843-1.562 c-1.154-1.846-2.308-3.808-3.348-5.539c-0.024-0.037-0.046-0.07-0.071-0.107c-0.544-0.915-1.087-1.803-1.659-2.661 c-1.27-1.848-2.539-3.695-3.808-5.308c-0.225-0.288-0.445-0.546-0.668-0.82c-0.433-0.557-0.864-1.098-1.294-1.604l-0.038,0.03 c-3.066-3.476-5.979-5.685-8.733-5.685c-1.27,0-28.504,20.657-30.005,22.62c-1.117,1.303,5.802,5.913,8.031,8.614 c0.522,0.67,0.795,1.2,0.625,1.541c-0.047,0.094-0.133,0.14-0.224,0.18c-0.048,0.019-0.098,0.037-0.155,0.044 c-0.042,0.005-0.094,0-0.141-0.002c-0.427-0.013-1.053-0.276-1.833-0.654c-3.291-1.733-8.75-6.072-8.496-3.953 c0,1.072-18.905,11.657-26.074,30.254l-0.122,0.096c-0.46,1.384-0.923,2.769-1.269,4.154c-0.116,0.462-0.347,0.924-0.461,1.386 c-1.191,3.901-2.803,6.953-4.522,9.58c-0.265,0.396-0.527,0.802-0.796,1.181c-0.093,0.133-0.187,0.264-0.281,0.395 c-3.066,4.262-6.232,7.5-8.019,11.926c-0.662,1.818-1.131,3.888-1.268,6.306c-0.168,1.965-0.044,4.233,0.343,6.849 c0.129,0.966,0.336,1.971,0.587,3.026c0.038,0.188,0.068,0.361,0.107,0.551c0.054,0.164,0.101,0.32,0.146,0.476 c0.072,0.279,0.152,0.569,0.229,0.856c0.06,0.232,0.124,0.475,0.201,0.746c0.065,0.225,0.108,0.465,0.159,0.699 c0.043,0.229,0.072,0.456,0.072,0.688c0.224,1.289,0.334,2.604,0.341,3.934c-0.006,1.198-0.11,2.398-0.258,3.596 c-0.031,0.221-0.046,0.441-0.083,0.662c-0.462,3.465-1.501,6.924-2.539,10.271c-0.047,0.157-0.095,0.31-0.143,0.467 c-0.548,1.727-1.094,3.428-1.589,5.072c-0.725,2.322-1.313,4.506-1.622,6.469c-0.04,0.251-0.068,0.494-0.098,0.737 c-0.026,0.217-0.05,0.435-0.068,0.645c-0.012,0.148-0.025,0.295-0.032,0.44c-0.029,0.483-0.045,0.956-0.026,1.404 c0,0.23,0.116,0.577,0.116,0.924c0.244,1.343,0.588,2.42,1.025,3.316c0.059,0.121,0.12,0.232,0.18,0.347 c0.029,0.056,0.059,0.112,0.089,0.163c0.816,1.479,1.895,2.455,3.282,3.318c0.564,0.385,1.178,0.775,1.841,1.186 c0.635,0.41,1.302,0.85,2.008,1.364c0.178,0.117,0.379,0.229,0.596,0.333c1.789,0.885,4.505,1.176,6.674,1.281 c0.923,0,1.73,0,2.308,0c1.336-0.111,2.701-0.193,4.077-0.263c3.278-0.105,6.636-0.22,10.002-0.431 c3.46-0.191,6.833-0.481,10.132-1.031c0.567-0.093,1.125-0.189,1.675-0.298c0.103-0.02,0.207-0.033,0.31-0.054 c0.231,0,0.347,0,0.579-0.117l13.386-2.654l6.924-1.385l13.849-2.77l4.962-1.038c0.692-0.115,1.385-0.232,2.078-0.347 c1.265-0.244,2.557-0.478,3.861-0.701c0.939-0.153,1.873-0.306,2.832-0.452c0.418-0.071,0.838-0.136,1.256-0.206 c1.679-0.254,3.373-0.497,5.091-0.717c3.807-0.576,7.847-0.924,12.001-1.27c0.934-0.09,1.878-0.164,2.828-0.227 c0.931-0.051,1.872-0.094,2.828-0.119c1.101-0.075,2.233-0.117,3.357-0.166c0.686-0.023,1.373-0.047,2.066-0.067 c0.882-0.03,1.767-0.047,2.649-0.073c0.888-0.015,1.76-0.043,2.661-0.043c1.719,0,3.447,0,5.194,0c1.154,0,2.191,0,3.229,0 c0.896,0.044,1.749,0.113,2.579,0.193c0.355,0.033,0.71,0.069,1.055,0.112c0.235,0.027,0.469,0.059,0.699,0.09 c2.08,0.308,3.957,0.786,5.71,1.452c1.95,0.781,3.723,1.733,5.274,2.774c0.824,0.593,1.602,1.222,2.33,1.883 c1.115,1.06,2.123,2.21,3.012,3.423c1.384,1.729,2.423,3.576,3.348,5.539c4.27,9.347,4.038,19.734,4.038,21.812 c0,3.808,2.308,10.618,9.925,3.694c4.27-3.926-1.847-17.66-2.54-34.508c-0.026-0.678-0.041-1.357-0.044-2.037 c0.001-0.018,0-0.033,0-0.052c0-0.016,0-0.028,0-0.047c0.003-0.667,0.018-1.339,0.044-2.019c0-0.203,0.013-0.407,0.014-0.611 c0.047-1.205,0.12-2.421,0.22-3.66c0.101-1.365,0.279-2.755,0.502-4.156c0.028-0.153,0.046-0.304,0.074-0.459 c0.392-2.344,0.956-4.693,1.701-7.072c1.06-3.273,2.437-6.59,4.267-9.843c0.146-0.257,0.306-0.514,0.457-0.769 c2.257-3.752,5.04-7.402,8.577-11.054c4.674-4.774,8.789-9.091,12.546-13.206c2.371-2.561,4.601-5.015,6.716-7.394 c0.403-0.454,0.809-0.906,1.205-1.354c0.141-0.161,0.28-0.323,0.423-0.484c5.332-6.055,9.997-11.715,14.77-17.721 c4.849-6.231,9.926-12.924,15.695-20.656c1.386-1.963,2.886-3.926,4.386-6.002c0.924-1.153,1.846-2.423,2.77-3.808 c2.084-3.018,4.303-6.483,6.32-9.896c1.701-2.823,3.24-5.623,4.447-8.118C264.087,42.7,265.13,40.166,265.319,38.563z"/>
</g>
</svg>
