<svg xmlns="http://www.w3.org/2000/svg" viewBox="134.25 77.56 100 100">
<g>
	<rect x="134.25" y="77.56" fill="#978BA3" width="100" height="100"/>
	<g>
		<path fill="#FFFFFF" d="M157.461,89.359h1.125h1.138v16.535h-1.125h-1.138V89.359z"/>
		<path fill="#FFFFFF" d="M164.926,105.894h-1.043h-1.055V89.359h1.84h1.84l2.996,13.324H169.5l2.902-13.324h1.84h1.84v16.535 h-1.043h-1.055V91.539h-0.005l-3.382,14.355h-1.138h-1.137l-3.402-14.402h0.004L164.926,105.894L164.926,105.894z"/>
		<path fill="#FFFFFF" d="M182.353,89.359h1.5h1.512l3.785,16.535h-1.196h-1.208l-0.762-3.75h-4.43l-0.786,3.75h-1.101h-1.1 L182.353,89.359z M181.943,100.281h3.684l-1.853-8.883h0.01L181.943,100.281z"/>
		<path fill="#FFFFFF" d="M196.379,106.093c-1.836,0-3.102-0.4-3.797-1.201s-1.043-2.26-1.043-4.377v-6.094 c0-1.859,0.379-3.201,1.137-4.025s1.992-1.236,3.703-1.236c1.603,0,2.769,0.349,3.498,1.043c0.73,0.695,1.084,1.793,1.062,3.293 v0.492h-2.263v-0.492c0.016-0.874-0.158-1.506-0.521-1.893c-0.363-0.387-0.955-0.58-1.775-0.58c-0.914,0-1.571,0.271-1.975,0.809 c-0.403,0.539-0.604,1.414-0.604,2.626v6.094c0,1.397,0.186,2.36,0.557,2.889s1.045,0.791,2.021,0.791 c0.859-0.008,1.625-0.137,2.297-0.387v-4.853h-2.53v-1.862h4.793v8.19C199.844,105.828,198.324,106.085,196.379,106.093z"/>
		<path fill="#FFFFFF" d="M203.949,105.894V89.359h7.406v0.926v0.938h-5.146v5.237h4.84v0.926v0.938h-4.84v5.707h5.297v0.926v0.938 L203.949,105.894L203.949,105.894z"/>
		<path fill="#FFFFFF" d="M169.531,134.695h-1.072h-1.072v-16.536h1.775h1.787l4.277,14.274v-14.274h1.043h1.055v16.536h-1.77 h-1.781l-4.242-14.202V134.695L169.531,134.695z"/>
		<path fill="#FFFFFF" d="M181.297,133.693c-0.672-0.801-1.008-2.26-1.008-4.377v-6.094c0-1.859,0.367-3.201,1.103-4.025 c0.734-0.824,1.934-1.235,3.598-1.235c1.694,0,2.902,0.409,3.621,1.229s1.077,2.191,1.077,4.113v6.938 c0,1.642-0.366,2.826-1.102,3.558c-0.734,0.73-1.934,1.096-3.598,1.096C183.199,134.894,181.969,134.494,181.297,133.693z M186.853,132.263c0.383-0.513,0.573-1.343,0.573-2.49v-6.938c0-1.141-0.174-1.928-0.521-2.36c-0.347-0.434-0.986-0.65-1.916-0.65 c-0.859,0-1.48,0.271-1.863,0.81s-0.574,1.414-0.574,2.625v6.094c0,1.398,0.175,2.361,0.521,2.889 c0.347,0.528,0.986,0.791,1.916,0.791C185.848,133.031,186.469,132.775,186.853,132.263z"/>
		<path fill="#FFFFFF" d="M195.781,120.022h-3.81v-0.926v-0.938h9.88v0.926v0.938h-3.81v14.672h-1.125h-1.137L195.781,120.022 L195.781,120.022z"/>
		<path fill="#FFFFFF" d="M155.967,163.494v-16.536h7.22v0.927v0.938h-4.957v5.238h4.733v0.926v0.938h-4.733v7.569h-1.125H155.967 L155.967,163.494z"/>
		<path fill="#FFFFFF" d="M166.701,162.492c-0.672-0.801-1.008-2.26-1.008-4.377v-6.094c0-1.859,0.367-3.201,1.102-4.025 c0.735-0.823,1.935-1.236,3.599-1.236c1.694,0,2.901,0.411,3.62,1.23c0.72,0.82,1.078,2.191,1.078,4.113v6.938 c0,1.642-0.366,2.826-1.102,3.558c-0.735,0.73-1.934,1.096-3.598,1.096C168.604,163.693,167.373,163.292,166.701,162.492z M172.256,161.062c0.383-0.512,0.574-1.342,0.574-2.49v-6.938c0-1.142-0.174-1.929-0.521-2.361 c-0.348-0.434-0.986-0.649-1.916-0.649c-0.859,0-1.48,0.27-1.863,0.809s-0.574,1.414-0.574,2.624v6.095 c0,1.398,0.174,2.361,0.521,2.889c0.347,0.528,0.985,0.791,1.916,0.791C171.252,161.83,171.873,161.574,172.256,161.062z"/>
		<path fill="#FFFFFF" d="M187.373,159.298c0,1.469-0.385,2.567-1.154,3.299c-0.769,0.73-1.924,1.096-3.463,1.096 c-1.547,0-2.705-0.365-3.475-1.096c-0.77-0.731-1.154-1.83-1.154-3.299v-12.341h1.125h1.138v11.72 c0,1.102,0.188,1.905,0.567,2.414c0.379,0.508,0.979,0.762,1.799,0.762c0.836,0,1.438-0.248,1.805-0.744 c0.367-0.496,0.552-1.307,0.552-2.432v-11.72h1.125h1.137L187.373,159.298L187.373,159.298z"/>
		<path fill="#FFFFFF" d="M192.541,163.494h-1.072h-1.072v-16.536h1.775h1.787l4.277,14.273v-14.273h1.043h1.055v16.535h-1.77 h-1.781l-4.242-14.2V163.494L192.541,163.494z"/>
		<path fill="#FFFFFF" d="M203.346,146.958h1.125h2.906c1.906,0,3.283,0.383,4.131,1.148c0.849,0.766,1.271,2.012,1.271,3.738v6.445 c0,1.835-0.324,3.161-0.974,3.979c-0.648,0.816-1.707,1.225-3.176,1.225h-4.159h-1.126L203.346,146.958L203.346,146.958z M205.607,161.63h2.297c0.977,0,1.655-0.242,2.039-0.728c0.383-0.485,0.573-1.344,0.573-2.578v-6.445 c0-1.141-0.209-1.936-0.627-2.385s-1.161-0.674-2.231-0.674h-2.051V161.63L205.607,161.63z"/>
	</g>
</g>
</svg>
